<?xml version="1.0" encoding="utf-8"?>
<!-- Generator: Adobe Illustrator 22.1.0, SVG Export Plug-In . SVG Version: 6.00 Build 0)  -->
<svg version="1.1" id="Calque_1" xmlns="http://www.w3.org/2000/svg" xmlns:xlink="http://www.w3.org/1999/xlink" x="0px" y="0px"
	 viewBox="0 0 399.6 392.2" style="enable-background:new 0 0 399.6 392.2;" xml:space="preserve">
<style type="text/css">
	.st0{fill:#FFFFFF;}
</style>
<g id="LMJEjT.tif">
	<g>
		<g>
			<path class="st0" d="M388.1,208.2c0,59.1,0,118.2,0,177.3c-126,0-251.9,0-377.9,0c0-126,0-251.9,0-377.9c58.9,0,117.9,0,176.8,0
				c-0.7,0.2-1.4,0.4-2.1,0.5c-7.1,1-14.3,1.5-21.3,2.9c-42.9,8.4-78.9,29-107.1,62.3c-39.1,46.1-53,99.4-42.2,158.8
				c7.6,41.4,27.7,76.3,58.9,104.4c31.9,28.7,69.4,44.7,112.2,47.9c24.3,1.9,48-0.7,71.2-8.2c45.5-14.8,80.7-42.9,105.4-83.9
				c13.1-21.8,21.2-45.4,24.5-70.7C387,217.1,387.5,212.7,388.1,208.2z"/>
			<path class="st0" d="M211.3,7.6c58.9,0,117.9,0,176.8,0c0,58.7,0,117.5,0,176.2c-0.2-0.8-0.5-1.6-0.6-2.4
				c-1-14.5-3.8-28.7-8.3-42.6c-14.9-45.4-42.9-80.4-83.8-105C273.6,20.7,250,12.6,224.7,9.3C220.3,8.7,215.8,8.2,211.3,7.6z"/>
			<path d="M211.3,7.6c4.5,0.6,8.9,1.1,13.4,1.7c25.3,3.3,48.9,11.4,70.7,24.5c40.9,24.6,68.9,59.7,83.8,105
				c4.5,13.8,7.3,28,8.3,42.6c0.1,0.8,0.4,1.6,0.6,2.4c0,8.1,0,16.2,0,24.4c-0.6,4.5-1.1,9-1.7,13.4c-3.3,25.3-11.4,48.9-24.5,70.7
				c-24.7,41-59.8,69.1-105.4,83.9c-23.1,7.5-46.9,10.1-71.2,8.2c-42.8-3.3-80.3-19.3-112.2-47.9c-31.3-28.1-51.4-63-58.9-104.4
				C3.4,172.7,17.4,119.4,56.4,73.3C84.6,40,120.7,19.5,163.6,11c7-1.4,14.2-1.9,21.3-2.9c0.7-0.1,1.4-0.4,2.1-0.5
				C195.1,7.6,203.2,7.6,211.3,7.6z M385.2,199.8C386.9,98,306.9,12.7,203,10.5C101.2,8.5,15.9,88.7,13.7,192.5
				C11.5,294.3,91.8,379.9,195.8,382C297.5,384.1,382.8,303.8,385.2,199.8z"/>
			<path class="st0" d="M385.2,199.8c-2.4,104.1-87.7,184.4-189.4,182.3c-104-2.1-184.3-87.7-182.1-189.5
				C15.9,88.7,101.2,8.5,203,10.5C306.9,12.7,386.9,98,385.2,199.8z M198.8,375.3c98.5,0.4,178.3-79.6,179.1-177
				c0.9-99.6-79.7-179.8-177.4-180.6C101.2,17,21,97.4,20.3,195.1C19.6,294.7,100.4,375.5,198.8,375.3z"/>
			<path d="M198.8,375.3c-98.4,0.2-179.2-80.7-178.5-180.2C21,97.4,101.2,17,200.6,17.7c97.7,0.7,178.3,81,177.4,180.6
				C377.1,295.8,297.3,375.8,198.8,375.3z M372.2,200.1c1.7-94.7-72.6-174.3-169.3-176.5C108.3,21.4,28.3,95.9,26.1,192.9
				C24,287.5,98.5,367.4,195.5,369.6C290.1,371.7,369.7,297.2,372.2,200.1z"/>
			<path class="st0" d="M372.2,200.1c-2.5,97.1-82.1,171.5-176.7,169.4c-97-2.2-171.5-82-169.4-176.7c2.2-97,82.1-171.5,176.8-169.3
				C299.6,25.8,373.9,105.4,372.2,200.1z M199.1,366.3c93.2,0,169.2-75.7,169.8-168.1c0.6-94.6-75.7-170.6-168.3-171.4
				C106.1,26,29.9,102.7,29.4,195.4C28.8,289.9,105.7,366.6,199.1,366.3z"/>
			<path d="M199.1,366.3c-93.5,0.4-170.4-76.4-169.8-170.9C29.9,102.7,106.1,26,200.7,26.8c92.5,0.8,168.9,76.8,168.3,171.4
				C368.4,290.6,292.3,366.3,199.1,366.3z M198.8,365.1c93.6-0.2,168.5-75.1,168.8-167.8c0.4-93.9-75.1-168.9-167.9-169.3
				c-93.3-0.3-169.2,75.3-169.2,168C30.5,289.3,106,365.1,198.8,365.1z"/>
			<path class="st0" d="M198.8,365.1c-92.8,0-168.3-75.8-168.2-169c0-92.8,75.9-168.4,169.2-168c92.8,0.3,168.2,75.3,167.9,169.3
				C367.2,290,292.4,365,198.8,365.1z M193.9,216.5c4,0,7.8,0,11.8,0c0-5.2,0-10.3,0-16.1c2.6,4.2,4.8,7.7,6.9,11.2
				c1.6,2.6,6.3,2.5,7.9-0.1c2.2-3.7,4.4-7.3,6.6-11c0.2,0,0.4,0.1,0.6,0.1c0,5.3,0,10.6,0,15.9c4.1,0,7.8,0,11.7,0
				c0-12.6,0-25.1,0-38c-1.3,0-2.4,0.2-3.5,0c-5.4-1.1-8.6,1.2-10.9,6.1c-2.3,4.8-5.4,9.2-8.2,14.1c-3.9-6.3-7.5-12.2-11.2-18.1
				c-0.5-0.8-1.4-1.9-2.1-1.9c-3.2-0.2-6.3-0.1-9.6-0.1C193.9,191.4,193.9,203.8,193.9,216.5z M153.7,201.4c0.2-0.1,0.4-0.1,0.6-0.2
				c2.1,3.3,4.2,6.7,6.2,10c1.9,3.1,6.5,2.9,8.3-0.2c2.1-3.5,4.2-7,6.3-10.4c0.2,0.1,0.5,0.1,0.7,0.2c0,5.2,0,10.5,0,15.6
				c4.1,0,7.8,0,11.5,0c0-12.7,0-25.2,0-37.9c-2.9,0-5.5,0.1-8.1,0c-1.7-0.1-2.7,0.5-3.6,2c-3.4,6-7,11.9-10.8,18.2
				c-0.7-1.1-1.3-2-1.8-2.8c-3.1-5.1-6.3-10.3-9.5-15.4c-0.5-0.8-1.4-1.7-2.2-1.8c-3.1-0.2-6.2-0.1-9.4-0.1c0,12.8,0,25.4,0,37.9
				c4,0,7.7,0,11.6,0C153.7,211.3,153.7,206.4,153.7,201.4z M123.5,178.7c0,4,0,7.9,0,11.7c-0.1,3.9,0,7.8-0.4,11.6
				c-0.4,3.8-2.5,5.3-5.8,5.1c-3-0.2-4.9-2.1-5.1-5.7c-0.2-5.5-0.2-10.9-0.2-16.4c0-2.1,0-4.1,0-6.2c-4.5,0-8.6,0-13,0
				c0,7-0.1,13.7,0,20.5c0.2,11.3,5.3,17.2,16.5,18.3c9.2,0.9,18.7-2.6,20.1-13.3c1-8.3,0.2-16.9,0.2-25.5
				C131.8,178.7,127.8,178.7,123.5,178.7z M313.8,216.6c0-3.3,0-6.4,0-9.7c-6.3,0-12.4,0-18.5,0c0-1.7,0-3.2,0-5
				c5.4,0,10.5,0,15.6,0c0-3.2,0-6.1,0-9.3c-5.3,0-10.5,0-15.6,0c0-1.6,0-2.9,0-4.4c6.1,0,12,0,17.8,0c0-3.4,0-6.4,0-9.5
				c-10.3,0-20.5,0-30.7,0c0,12.7,0,25.2,0,37.8C292.9,216.6,303.3,216.6,313.8,216.6z M245.9,216.5c10.6,0,21,0,31.4,0
				c0-3.2,0-6.3,0-9.6c-6.4,0-12.5,0-18.7,0c0-1.8,0-3.2,0-4.9c5.4,0,10.5,0,15.8,0c0-3.1,0-6,0-9.3c-5.4,0-10.6,0-15.9,0
				c0-1.6,0-2.9,0-4.5c6.2,0,12.1,0,18.2,0c0-3.3,0-6.3,0-9.4c-10.4,0-20.6,0-30.8,0C245.9,191.4,245.9,203.9,245.9,216.5z
				 M98.3,178.5c-3.8,0-7.1,0.1-10.3,0c-1.6,0-2.6,0.4-3.4,1.9c-2.1,3.7-4.3,7.2-6.7,11.2c-2.4-4-4.5-7.6-6.7-11.2
				c-0.4-0.7-1.3-1.7-1.9-1.7c-4.1-0.2-8.2-0.1-12.7-0.1c0.5,1,0.7,1.5,1,1.9c3.9,6.6,7.9,13.1,11.6,19.7c0.9,1.5,1.3,3.5,1.4,5.3
				c0.2,3.6,0.1,7.3,0.1,11.1c4.5,0,8.7,0,13,0c0-2.6,0.2-5.1,0-7.5c-0.4-4.1,0.7-7.6,3-11.1C90.7,191.7,94.3,185.3,98.3,178.5z
				 M327.2,188.7c0,9.5,0,18.6,0,27.8c4.5,0,8.6,0,13,0c0-9.3,0-18.4,0-27.9c3.8,0,7.4,0,10.9,0c0-3.5,0-6.7,0-9.9
				c-11.7,0-23.3,0-34.8,0c0,3.4,0,6.5,0,10C319.9,188.7,323.3,188.7,327.2,188.7z M37,206.3c0,0,0.1,0,0.1,0c0-6.7,0-13.5,0-20.2
				c0,0-0.1,0-0.1,0C37,192.9,37,199.6,37,206.3z M361.8,186.2c0,0-0.1,0-0.1,0c0,6.7,0,13.5,0,20.2c0,0,0.1,0,0.1,0
				C361.8,199.7,361.8,192.9,361.8,186.2z M209.4,34.1c0,0,0-0.1-0.1-0.1c-6.6,0-13.3,0-19.9,0c0,0,0,0.1,0,0.1
				C196.1,34.1,202.8,34.1,209.4,34.1z M209.5,358.7c0,0,0-0.1,0-0.1c-6.8,0-13.5,0-20.3,0c0,0,0,0.1,0,0.1
				C196,358.7,202.8,358.7,209.5,358.7z"/>
			<path d="M193.9,216.5c0-12.7,0-25.1,0-37.9c3.3,0,6.5-0.1,9.6,0.1c0.8,0.1,1.6,1.1,2.1,1.9c3.7,5.9,7.3,11.9,11.2,18.1
				c2.9-4.8,6-9.3,8.2-14.1c2.3-4.9,5.5-7.2,10.9-6.1c1.1,0.2,2.2,0,3.5,0c0,12.9,0,25.4,0,38c-3.8,0-7.6,0-11.7,0
				c0-5.3,0-10.6,0-15.9c-0.2,0-0.4-0.1-0.6-0.1c-2.2,3.7-4.4,7.4-6.6,11c-1.5,2.6-6.3,2.6-7.9,0.1c-2.2-3.5-4.3-7-6.9-11.2
				c0,5.8,0,10.8,0,16.1C201.7,216.5,197.9,216.5,193.9,216.5z"/>
			<path d="M153.7,201.4c0,5,0,9.9,0,15.1c-3.9,0-7.7,0-11.6,0c0-12.5,0-25.1,0-37.9c3.2,0,6.3-0.1,9.4,0.1c0.8,0.1,1.7,1,2.2,1.8
				c3.2,5.1,6.3,10.3,9.5,15.4c0.5,0.9,1.1,1.7,1.8,2.8c3.7-6.2,7.3-12.1,10.8-18.2c0.9-1.5,1.9-2.1,3.6-2c2.6,0.1,5.2,0,8.1,0
				c0,12.7,0,25.2,0,37.9c-3.7,0-7.4,0-11.5,0c0-5.2,0-10.4,0-15.6c-0.2-0.1-0.5-0.1-0.7-0.2c-2.1,3.5-4.2,7-6.3,10.4
				c-1.9,3.1-6.4,3.3-8.3,0.2c-2.1-3.3-4.2-6.7-6.2-10C154.2,201.3,153.9,201.4,153.7,201.4z"/>
			<path d="M123.5,178.7c4.3,0,8.3,0,12.3,0c0,8.6,0.8,17.2-0.2,25.5c-1.3,10.7-10.9,14.2-20.1,13.3c-11.2-1.1-16.3-7-16.5-18.3
				c-0.1-6.8,0-13.6,0-20.5c4.4,0,8.5,0,13,0c0,2.1,0,4.2,0,6.2c0,5.5,0,11,0.2,16.4c0.1,3.6,2.1,5.5,5.1,5.7
				c3.4,0.2,5.4-1.3,5.8-5.1c0.4-3.8,0.4-7.7,0.4-11.6C123.5,186.6,123.5,182.7,123.5,178.7z"/>
			<path d="M313.8,216.6c-10.5,0-20.9,0-31.4,0c0-12.6,0-25.1,0-37.8c10.2,0,20.4,0,30.7,0c0,3,0,6.1,0,9.5c-5.8,0-11.7,0-17.8,0
				c0,1.6,0,2.8,0,4.4c5.2,0,10.3,0,15.6,0c0,3.2,0,6.1,0,9.3c-5.1,0-10.2,0-15.6,0c0,1.8,0,3.2,0,5c6,0,12.1,0,18.5,0
				C313.8,210.2,313.8,213.2,313.8,216.6z"/>
			<path d="M245.9,216.5c0-12.7,0-25.1,0-37.8c10.3,0,20.5,0,30.8,0c0,3.1,0,6.1,0,9.4c-6,0-12,0-18.2,0c0,1.6,0,2.9,0,4.5
				c5.3,0,10.5,0,15.9,0c0,3.2,0,6.1,0,9.3c-5.3,0-10.5,0-15.8,0c0,1.7,0,3.1,0,4.9c6.2,0,12.4,0,18.7,0c0,3.4,0,6.4,0,9.6
				C266.9,216.5,256.5,216.5,245.9,216.5z"/>
			<path d="M98.3,178.5c-4,6.8-7.6,13.2-11.5,19.3c-2.2,3.5-3.3,7-3,11.1c0.2,2.4,0,4.9,0,7.5c-4.4,0-8.5,0-13,0
				c0-3.8,0.2-7.4-0.1-11.1c-0.1-1.8-0.6-3.7-1.4-5.3c-3.8-6.6-7.7-13.1-11.6-19.7c-0.3-0.5-0.5-1-1-1.9c4.5,0,8.6-0.1,12.7,0.1
				c0.7,0,1.5,1,1.9,1.7c2.2,3.6,4.3,7.2,6.7,11.2c2.4-3.9,4.6-7.5,6.7-11.2c0.8-1.4,1.8-1.9,3.4-1.9
				C91.2,178.6,94.5,178.5,98.3,178.5z"/>
			<path d="M327.2,188.7c-3.8,0-7.3,0-10.9,0c0-3.4,0-6.6,0-10c11.5,0,23.1,0,34.8,0c0,3.2,0,6.3,0,9.9c-3.5,0-7.1,0-10.9,0
				c0,9.5,0,18.6,0,27.9c-4.4,0-8.5,0-13,0C327.2,207.4,327.2,198.2,327.2,188.7z"/>
			<ellipse cx="37.1" cy="196.3" rx="0.1" ry="14.3"/>
			<ellipse cx="361.7" cy="196.3" rx="0.1" ry="14.3"/>
			<path d="M209.4,34.1c-6.7,0-13.3,0-20,0c0,0,0-0.1,0-0.1c6.6,0,13.3,0,19.9,0C209.4,34,209.4,34,209.4,34.1z"/>
			<ellipse cx="199.4" cy="358.6" rx="14.3" ry="0.1"/>
		</g>
	</g>
</g>
</svg>
